<svg xmlns="http://www.w3.org/2000/svg" viewBox="0 0 31 31">
  <path d="M10.6,12.3l-1-1c-0.6-0.6-1.5-0.6-2.1,0c0,0,0,0,0,0l0,0c-0.6,0.6-0.6,1.6,0,2.2l1,1l1.1,1.1
  c0.6,0.6,1.5,0.6,2.1,0c0,0,0,0,0,0l1.1-1.1l3.8-3.9c0.6-0.6,0.6-1.6,0-2.2l0,0c-0.6-0.6-1.5-0.6-2.1,0c0,0,0,0,0,0L10.6,12.3z
  M20.6,3.7C16-1,8.4-1,3.7,3.7C-1,8.4-1,15.9,3.7,20.6C7.8,24.7,14.2,25.3,19,22c0.1,0.5,0.3,0.9,0.7,1.3l6.8,6.8c1,1,2.6,1,3.6,0.1
  c1-1,1-2.6,0.1-3.6c0,0,0,0,0,0l-6.8-6.8c-0.3-0.3-0.8-0.6-1.3-0.7C25.3,14.2,24.7,7.8,20.6,3.7z M18.5,18.5C15,22,9.3,22,5.9,18.5
  C2.4,15,2.4,9.3,5.9,5.9c3.5-3.5,9.1-3.5,12.6,0c0,0,0,0,0,0C22,9.3,22,15,18.5,18.5L18.5,18.5z"/>
</svg>
