<svg xmlns="http://www.w3.org/2000/svg" width="22" height="28" viewBox="0 0 22 28">
  <path d="M2.5,9.4v2.9H2.3c-1.2,0-2.3,1-2.3,2.2v12.2C0,28,1,29,2.3,29h17.5c1.2,0,2.3-1,2.3-2.2V14.6
  c0-1.2-1-2.2-2.3-2.2c0,0,0,0,0,0h-0.1V9.4c0-4.7-3.9-8.6-8.6-8.6C6.3,0.8,2.5,4.7,2.5,9.4z M12.3,21.2c-0.2,0.1-0.2,0.3-0.2,0.4
  c0,0.9,0,1.8,0,2.7l0,0c0,0.4-0.2,0.7-0.5,0.9c-0.5,0.3-1.2,0.1-1.5-0.4c-0.1-0.2-0.1-0.3-0.1-0.5l0,0c0-0.9,0-1.8,0-2.7
  c0-0.2-0.1-0.3-0.2-0.4c-0.8-0.6-1.1-1.6-0.7-2.5c0.4-0.9,1.4-1.4,2.3-1.2c1,0.2,1.8,1,1.8,2C13.2,20.2,12.9,20.8,12.3,21.2
  L12.3,21.2z M6.2,9.4c0.1-2.7,2.3-4.8,4.9-4.7c2.6,0.1,4.7,2.1,4.7,4.7v2.9H6.2V9.4z M1,8h7v4H1V8z"/>
</svg>
