<svg xmlns="http://www.w3.org/2000/svg" width="22" height="28" viewBox="0 0 22 28">
  <path fill="#8492a6" fill-rule="evenodd" d="M1006.47,1042.41v2.92h-0.2a2.252,2.252,0,0,0-2.27,2.22v12.23a2.252,2.252,0,0,0,2.27,2.22h17.46a2.252,2.252,0,0,0,2.27-2.22v-12.23a2.245,2.245,0,0,0-2.27-2.22h-0.06v-2.93A8.6,8.6,0,0,0,1006.47,1042.41Zm9.88,11.8a0.455,0.455,0,0,0-.23.44c0.01,0.9.01,1.79,0.01,2.69h0a0.966,0.966,0,0,1-.52.91,1.07,1.07,0,0,1-1.6-.91h0c0-.9,0-1.8.01-2.7a0.444,0.444,0,0,0-.21-0.42,2.026,2.026,0,0,1-.69-2.52,2.148,2.148,0,0,1,2.32-1.21,2.093,2.093,0,0,1,1.77,2.03A1.97,1.97,0,0,1,1016.35,1054.21Zm-6.12-11.8a4.841,4.841,0,0,1,9.68,0v2.92h-9.68v-2.92ZM1005,1041h7v4h-7v-4Z" transform="translate(-1004 -1034)"/>
</svg>
