<svg xmlns="http://www.w3.org/2000/svg" width="22" height="28" viewBox="0 0 22 28">
  <path fill="#8492a6" fill-rule="evenodd" d="M756.47,1042.41v2.92h-0.2a2.251,2.251,0,0,0-2.271,2.22v12.23a2.251,2.251,0,0,0,2.271,2.22h17.458a2.251,2.251,0,0,0,2.271-2.22v-12.23a2.245,2.245,0,0,0-2.271-2.22H773.67v-2.93A8.6,8.6,0,0,0,756.47,1042.41Zm9.876,11.8a0.457,0.457,0,0,0-.222.44c0.006,0.9.006,1.79,0.006,2.69h0a0.969,0.969,0,0,1-.515.91,1.073,1.073,0,0,1-1.6-.91h0c0-.9,0-1.8,0-2.7a0.453,0.453,0,0,0-.2-0.42,2.017,2.017,0,0,1-.691-2.52,2.155,2.155,0,0,1,2.324-1.21,2.1,2.1,0,0,1,1.768,2.03A1.976,1.976,0,0,1,766.346,1054.21Zm-6.111-11.8a4.837,4.837,0,0,1,9.671,0v2.92h-9.671v-2.92Z" transform="translate(-754 -1034)"/>
</svg>
