<svg xmlns="http://www.w3.org/2000/svg" width="75" height="75" viewBox="0 0 75 75" xml:space="preserve">
  <path fill="#FF4949" d="M37.5,0C58.2,0,75,16.8,75,37.5S58.2,75,37.5,75S0,58.2,0,37.5S16.8,0,37.5,0L37.5,0z"/>
  <path fill="#FFFFFF" d="M37.5,3C56.6,3,72,18.4,72,37.5S56.6,72,37.5,72S3,56.6,3,37.5S18.4,3,37.5,3L37.5,3z"/>
  <path fill="#FF4949" d="M26.2,46.7l20.5-20.5c0.6-0.6,1.5-0.6,2.1,0c0.6,0.6,0.6,1.5,0,2.1L28.3,48.8c-0.6,0.6-1.5,0.6-2.1,0
  C25.6,48.2,25.6,47.3,26.2,46.7L26.2,46.7z"/>
  <path fill="#FF4949" d="M28.3,26.2l20.5,20.5c0.6,0.6,0.5,1.6-0.1,2.1c-0.6,0.5-1.5,0.5-2.1,0L26.2,28.3c-0.6-0.6-0.6-1.5-0.1-2.1
  C26.7,25.6,27.6,25.6,28.3,26.2C28.3,26.1,28.3,26.2,28.3,26.2z"/>
</svg>
