<svg xmlns="http://www.w3.org/2000/svg" viewBox="-49 141 512 512" xml:space="preserve">
<g>
  <path fill="#E2E5E7" d="M79,141c-17.6,0-32,14.4-32,32v448c0,17.6,14.4,32,32,32h320c17.6,0,32-14.4,32-32V269L303,141H79z"/>
  <path fill="#B0B7BD" d="M335,269h96L303,141v96C303,254.6,317.4,269,335,269z"/>
  <polygon fill="#CAD1D8" points="431,365 335,269 431,269    "/>
  <path fill="#F15642" d="M367,557c0,8.8-7.2,16-16,16H-1c-8.8,0-16-7.2-16-16V397c0-8.8,7.2-16,16-16h352c8.8,0,16,7.2,16,16V557z"
  />
  <g>
    <path fill="#FFFFFF" d="M93,444.2c0-10.8,16.9-10.8,16.9,0v50.5c0,20.1-9.6,32.3-31.7,32.3c-10.9,0-20-3-27.9-13.2
    c-6.5-7.8,5.8-19.1,12.4-10.9c5.4,6.7,11.1,8.2,16.8,7.9c7.2-0.3,13.4-3.5,13.6-16.1L93,444.2L93,444.2z"/>
    <path fill="#FFFFFF" d="M132.3,444.2c0-4.2,3.3-8.8,8.7-8.8h29.6c16.6,0,31.6,11.1,31.6,32.5c0,20.2-15,31.5-31.6,31.5h-21.4v16.9
    c0,5.6-3.6,8.8-8.2,8.8c-4.2,0-8.7-3.2-8.7-8.8L132.3,444.2L132.3,444.2z M149.2,451.4v31.9h21.4c8.6,0,15.4-7.6,15.4-15.5
    c0-8.9-6.8-16.4-15.4-16.4H149.2z"/>
    <path fill="#FFFFFF" d="M293.6,515.2c-9.1,7.6-20.2,10.8-31.5,10.8c-26.9,0-45.9-15.3-45.9-45.8c0-25.8,20.1-45.9,47.1-45.9
    c10.1,0,21.2,3.4,29.2,11.2c7.8,7.7-3.5,19.1-11.1,12.3c-4.7-4.6-11.4-8.1-18-8.1c-15.5,0-30.4,12.4-30.4,30.4
    c0,18.9,12.5,30.5,29.3,30.5c7.8,0,14.4-2.3,19.2-5.8v-15.7h-19.2c-11.4,0-10.2-15.6,0-15.6h25.6c4.7,0,9.1,3.6,9.1,7.6v27.2
    C296.8,510.6,295.8,512.7,293.6,515.2z"/>
  </g>
  <path fill="#CAD1D8" d="M351,573H47v16h304c8.8,0,16-7.2,16-16v-16C367,565.8,359.8,573,351,573z"/>
</g>
</svg>
