<svg xmlns="http://www.w3.org/2000/svg" viewBox="-49 141 512 512" xml:space="preserve">
<g>
  <path fill="#E2E5E7" d="M79,141c-17.6,0-32,14.4-32,32v448c0,17.6,14.4,32,32,32h320c17.6,0,32-14.4,32-32V269L303,141H79z"/>
  <path fill="#B0B7BD" d="M335,269h96L303,141v96C303,254.6,317.4,269,335,269z"/>
  <polygon fill="#CAD1D8" points="431,365 335,269 431,269    "/>
  <path fill="#84BD5A" d="M367,557c0,8.8-7.2,16-16,16H-1c-8.8,0-16-7.2-16-16V397c0-8.8,7.2-16,16-16h352c8.8,0,16,7.2,16,16V557z"
  />
  <g>
    <path fill="#FFFFFF" d="M6.7,517.1v-72.7c0-4.6,3.3-7.9,9.1-7.9c4.5,0,7.8,3.3,7.8,7.9v27.9h41.7v-27.9c0-4.6,4.1-7.9,8.7-7.9
    c4.5,0,7.9,3.3,7.9,7.9v72.7c0,4.5-3.5,7.9-7.9,7.9c-4.6,0-8.7-3.5-8.7-7.9v-28H23.6v28c0,4.5-3.3,7.9-7.8,7.9
    C10,525,6.7,521.5,6.7,517.1z"/>
    <path fill="#FFFFFF" d="M123.8,452.5h-22.4c-11.1,0-11.1-16.4,0-16.4h60.5c11.4,0,11.4,16.4,0,16.4h-21.2v64.6
    c0,11.1-16.9,11.4-16.9,0L123.8,452.5L123.8,452.5z"/>
    <path fill="#FFFFFF" d="M199.7,468.8v47.3c0,5.6-4.6,8.8-9.2,8.8c-4.1,0-7.7-3.2-7.7-8.8v-72c0-6.7,5.6-8.8,7.7-8.8
    c3.7,0,5.9,2.2,8,4.6l28.2,38l29.2-39.4c4.2-5.2,14.6-3.2,14.6,5.6v72c0,5.6-3.6,8.8-7.7,8.8c-4.6,0-8.2-3.2-8.2-8.8v-47.3
    l-21.2,26.9c-4.6,5.6-10.4,5.6-14.6,0L199.7,468.8z"/>
    <path fill="#FFFFFF" d="M288.3,444.2c0-4.2,3.6-7.8,8.1-7.8c4.1,0,7.6,3.6,7.6,7.8v64.1h34.8c12.5,0,12.8,16.8,0,16.8h-42.3
    c-4.5,0-8.1-3.2-8.1-7.8L288.3,444.2L288.3,444.2z"/>
  </g>
  <path fill="#CAD1D8" d="M351,573H47v16h304c8.8,0,16-7.2,16-16v-16C367,565.8,359.8,573,351,573z"/>
</g>
</svg>
