<svg xmlns="http://www.w3.org/2000/svg" viewBox="-49 141 512 512" xml:space="preserve">
<g>
  <path fill="#E2E5E7" d="M79,141c-17.6,0-32,14.4-32,32v448c0,17.6,14.4,32,32,32h320c17.6,0,32-14.4,32-32V269L303,141H79z"/>
  <path fill="#B0B7BD" d="M335,269h96L303,141v96C303,254.6,317.4,269,335,269z"/>
  <polygon fill="#CAD1D8" points="431,365 335,269 431,269 "/>
  <path fill="#50BEE8" d="M367,557c0,8.8-7.2,16-16,16H-1c-8.8,0-16-7.2-16-16V397c0-8.8,7.2-16,16-16h352c8.8,0,16,7.2,16,16V557z"/>
  <path fill="#FFFFFF" d="M43.6,525c-4.2,0-8.8-2.3-8.8-7.9v-72.7c0-4.6,4.6-7.9,8.8-7.9h29.3c58.5,0,57.2,88.5,1.1,88.5H43.6z
M51.6,452.1v57.3h21.2c34.5,0,36.1-57.3,0-57.3H51.6z"/>
  <path fill="#FFFFFF" d="M179,526.3c-23.7,1-48.2-14.7-48.2-46.1c0-31.5,24.6-46.9,48.2-46.9c22.4,1.1,45.8,16.6,45.8,46.9
C224.8,510.6,201.4,526.3,179,526.3z M177.6,449.9c-14.3,0-29.9,10.1-29.9,30.3c0,20.1,15.6,30.3,29.9,30.3
c14.7,0,30.4-10.2,30.4-30.3C208,460,192.3,449.9,177.6,449.9z"/>
  <path fill="#FFFFFF" d="M239.8,480.1c0-24.7,15.5-45.9,44.9-45.9c11.1,0,20,3.3,29.3,11.4c3.5,3.2,3.8,8.8,0.4,12.4
c-3.5,3.1-8.7,2.7-11.8-0.4c-5.2-5.5-10.6-7-17.9-7c-19.7,0-29.2,14-29.2,29.6c0,15.9,9.3,30.4,29.2,30.4c7.3,0,14.1-3,20-8.2
c4-3.1,9.5-1.6,11.8,1.5c2,2.8,3.1,7.6-1.4,12c-9,8.3-19.7,10-30.3,10C253.8,525.9,239.8,504.8,239.8,480.1z"/>
  <path fill="#CAD1D8" d="M351,573H47v16h304c8.8,0,16-7.2,16-16v-16C367,565.8,359.8,573,351,573z"/>
</g>
</svg>
