<svg xmlns="http://www.w3.org/2000/svg" viewBox="-49 141 512 512" xml:space="preserve">
<g>
  <path fill="#E2E5E7" d="M79,141c-17.6,0-32,14.4-32,32v448c0,17.6,14.4,32,32,32h320c17.6,0,32-14.4,32-32V269L303,141H79z"/>
  <path fill="#B0B7BD" d="M335,269h96L303,141v96C303,254.6,317.4,269,335,269z"/>
  <polygon fill="#CAD1D8" points="431,365 335,269 431,269    "/>
  <path fill="#576D7E" d="M367,557c0,8.8-7.2,16-16,16H-1c-8.8,0-16-7.2-16-16V397c0-8.8,7.2-16,16-16h352c8.8,0,16,7.2,16,16V557z"
  />
  <g>
    <path fill="#FFFFFF" d="M83.8,452.5H61.4c-11.1,0-11.1-16.4,0-16.4h60.5c11.4,0,11.4,16.4,0,16.4h-21.2v64.6
    c0,11.1-16.9,11.4-16.9,0L83.8,452.5L83.8,452.5z"/>
    <path fill="#FFFFFF" d="M175.4,467.2l22.3-27.9c6.7-8.7,19.6,2.4,12.3,10.8c-7.7,9.1-15.7,18.9-23.4,29l26.1,32.5
    c7,9.6-7,18.8-14,9.3l-23.5-30.2L152,521.5c-6.5,9.3-21-1.2-13.7-9.9l25.7-32.6c-8-10.1-15.9-19.9-23.7-29
    c-8.1-9.6,6.9-19.4,12.8-10.5L175.4,467.2z"/>
    <path fill="#FFFFFF" d="M249.3,452.5h-22.4c-11.1,0-11.1-16.4,0-16.4h60.5c11.4,0,11.4,16.4,0,16.4h-21.2v64.6
    c0,11.1-16.9,11.4-16.9,0V452.5z"/>
  </g>
  <path fill="#CAD1D8" d="M351,573H47v16h304c8.8,0,16-7.2,16-16v-16C367,565.8,359.8,573,351,573z"/>
</g>
</svg>
