<svg xmlns="http://www.w3.org/2000/svg" width="75" height="75"  viewBox="0 0 75 75" xml:space="preserve">
  <circle fill="#13CE66" cx="37.5" cy="37.5" r="37.5"/>
  <circle fill="#FFFFFF" cx="37.5" cy="37.5" r="34.5"/>
  <path fill="#13CE66" d="M23.4,37.9c0.6-0.6,1.5-0.6,2.1,0c0,0,0,0,0,0l8.5,8.5c0.6,0.6,0.6,1.5,0,2.1s-1.5,0.6-2.1,0l-8.5-8.5
  C22.9,39.5,22.9,38.5,23.4,37.9z"/>
  <path fill="#13CE66" d="M31.9,46.4l20.5-20.5c0.6-0.6,1.5-0.6,2.1-0.1c0.6,0.6,0.6,1.5,0.1,2.1c0,0,0,0-0.1,0.1L34.1,48.6
  c-0.6,0.6-1.5,0.6-2.1,0C31.3,48,31.3,47,31.9,46.4z"/>
</svg>
