<svg xmlns="http://www.w3.org/2000/svg" width="70" height="64" viewBox="0 0 70 64" xml:space="preserve">
  <path fill="#1fb6ff" d="M56.9,16.7c-0.8-4.4-3-8.5-6.3-11.5c-6.8-6.2-16.9-7-24.7-2.1c-2.7,1.7-5,4.1-6.6,6.8c-0.7-0.1-1.4-0.2-2.1-0.2
c-6.1,0-11.1,4.9-11.1,11c0,0.8,0.1,1.5,0.2,2.3C2.4,26,0,30.5,0,35.4c0,4,1.5,7.8,4.2,10.8c2.6,3,6.4,4.9,10.4,5.2H27
c1.1,0,1.9-0.9,1.9-1.9s-0.9-1.9-1.9-1.9c0,0,0,0,0,0H14.7C8.8,47.2,3.9,41.6,3.9,35.4c0-4.1,2.2-7.8,5.7-9.8
c0.8-0.5,1.2-1.5,0.8-2.3c-0.3-0.8-0.4-1.6-0.4-2.4c0-4,3.3-7.2,7.3-7.1c0.8,0,1.6,0.2,2.4,0.4c0.9,0.3,2-0.1,2.4-1
c2.7-5.7,8.5-9.3,14.8-9.3c8.4-0.1,15.5,6.3,16.3,14.6c0.1,0.9,0.7,1.6,1.6,1.7c7.5,1.4,12.4,8.7,11,16.2
c-1.2,6.1-6.2,10.6-12.3,11.2H42.9c-1.1,0-1.9,0.9-1.9,1.9s0.9,1.9,1.9,1.9c0,0,0,0,0,0h10.8c4.4-0.3,8.6-2.3,11.5-5.6
c6.6-7.2,6.2-18.3-1-24.9C62.2,18.9,59.7,17.5,56.9,16.7z M46.7,37.2c0.8-0.7,0.8-1.9,0-2.7c0,0,0,0,0,0L36.4,24.3
C36,24,35.5,23.8,35,23.8c-0.5,0-1,0.2-1.4,0.6L23.3,34.5c-0.8,0.7-0.8,1.9,0,2.7c0,0,0,0,0,0c0.4,0.4,0.9,0.6,1.4,0.6
c0.5,0,1-0.2,1.4-0.6l7-6.9v31.7c0,1.1,0.9,1.9,1.9,1.9c1.1,0,1.9-0.9,1.9-1.9V30.3l7,6.9C44.7,38,45.9,38,46.7,37.2z"/>
</svg>
